<?xml version="1.0" encoding="UTF-8" standalone="no"?>
<!-- Created with Inkscape (http://www.inkscape.org/) -->

<svg
   width="38mm"
   height="38mm"
   viewBox="0 0 38 38"
   version="1.1"
   id="svg5"
   xmlns="http://www.w3.org/2000/svg"
   xmlns:svg="http://www.w3.org/2000/svg">
  <defs
     id="defs2" />
  <g
     id="layer1">
    <g
       id="g4298"
       transform="translate(-0.89963411)">
      <g
         id="g1177"
         transform="matrix(0.11069128,0,0,0.10315036,15.613388,43.510428)">
        <g
           id="layer2" />
        <g
           id="layer1-3">
          <g
             style="fill:none"
             id="g1025"
             transform="matrix(0.26458333,0,0,0.26458333,0.10076723,0.936547)">
            <text
               xml:space="preserve"
               style="font-size:42.6667px;line-height:1.25;font-family:'Hunter River';-inkscape-font-specification:'Hunter River';letter-spacing:3.68px"
               x="168.53677"
               y="134.88641"
               id="text6633"><tspan
                 id="tspan6631"
                 x="168.53677"
                 y="134.88641" /></text>
          </g>
        </g>
      </g>
      <g
         id="g4378"
         transform="translate(-0.2)">
        <g
           id="g13087">
          <g
             id="g965"
             transform="matrix(0.11069128,0,0,0.10315036,15.613388,43.510428)">
            <g
               id="g5082"
               transform="translate(-535.31577,-405.73284)">
              <g
                 id="g1802"
                 transform="matrix(2.2163785,0,0,2.3996502,418.7181,-28.785412)">
                <g
                   id="g1909">
                  <path
                     d="m 96.319787,99.107661 c -0.104661,-0.3618 -1.385829,-0.683399 -1.628792,-0.737623 -0.242964,-0.05329 -3.202449,-0.5226 -3.170677,-0.542232 0.03177,-0.01963 -0.105596,-0.139298 -0.32146,-0.209414 -0.216798,-0.07012 -0.761318,-0.159865 -1.039885,-0.358995 -0.278661,-0.199131 -0.345289,-0.511381 -0.729359,-0.626839 -0.383976,-0.114897 -1.942403,-0.375262 -1.942403,-0.375262 0,0 -0.684223,-0.5427 -3.216748,-1.128124 -0.33828,-0.218015 -2.888559,-1.090449 -5.697595,-1.318093 -4.463433,-1.15402 -7.099404,-0.580843 -7.260882,0.453886 L 58.986429,92.128663 c 0.152881,-0.28112 -1.821948,-1.518532 -4.455022,-2.272048 -2.676714,-0.76595 -4.516698,-0.907024 -4.516698,-0.907024 -0.891678,-0.227831 -3.973861,-0.769596 -5.255215,-0.447996 -0.443596,-0.01084 -1.890913,-0.118076 -2.620552,0.112747 -1.271823,-0.294489 -1.517123,-0.258402 -1.517123,-0.258402 0,0 -0.464248,0.287477 -0.288753,0.439021 0.175401,0.151638 -0.307816,0.153976 -0.307816,0.153976 L 38.20274,88.62958 c 0,0 -1.063247,-0.132192 -0.993628,0.245033 0.06794,0.36741 1.219958,0.643668 1.219958,0.643668 0,0 1.88512,0.293553 2.221064,0.419575 0.336131,0.12649 0.151665,0.501659 0.584702,0.642266 0.432849,0.140419 1.728407,0.414994 1.728407,0.414994 0,0 0.439952,0.434067 2.881832,1.038469 2.029963,0.897956 5.265681,1.456175 6.136052,1.473751 1.83961,0.569437 7.007545,1.229746 7.284804,-0.282522 l 12.773358,2.26354 c 0.823647,1.219462 5.14775,2.832135 8.441032,3.093903 1.854468,0.5226 4.243644,0.714251 5.01412,0.598325 1.141649,0.239331 2.942759,0.112186 3.020975,-0.0065 0,0 0.472097,0.08227 0.665814,0.107512 0.755898,0.172018 0.912703,-0.186977 1.125016,-0.182303 0.375847,0.0084 0.713193,0.175759 0.949615,0.196326 0.235488,0.02057 0.644789,-0.141167 0.464435,-0.288879 0,0 -0.370053,-0.180433 -0.224274,-0.176693 0.01589,0 0.08597,-0.01963 0.176616,-0.0056 0.09158,0.01309 0.203716,0.05983 0.352297,0.08414 0.139237,0.0215 0.310247,0.02337 0.484994,0.05142 0.152319,0.02524 0.305573,0.07666 0.473774,0.104707 0.118679,0.0187 0.161665,0.02618 0.284081,0.04581 0.114941,0.01963 0.320528,0.03085 0.444814,0.05142 0.172878,0.02805 0.343887,0.08881 0.516765,0.11873 0.151385,0.02618 0.300902,0.0187 0.440139,0.04113 0.120547,0.01963 0.233619,0.06918 0.337346,0.08507 0.316787,0.04768 0.540127,0.07666 0.559751,0.07666 0.09064,-9.35e-4 0.858784,-0.01309 0.753188,-0.375824"
                     stroke="#f7f0f0"
                     stroke-width="0.092514"
                     id="path19222"
                     style="fill:#f7f0f0;fill-opacity:1" />
                  <g
                     id="g1805">
                    <path
                       d="m 57.316053,77.903848 -2.133036,-0.246342 0.06401,-0.527181 2.027907,0.234375 C 57.230642,76.985231 57.156725,76.609595 57.048419,76.242092 56.9018,75.753896 56.690047,75.27804 56.374101,74.872394 56.065724,74.468337 55.614839,74.141502 55.09555,74.08382 c -0.519288,-0.05815 -1.032036,0.160052 -1.425076,0.484269 -0.400143,0.323751 -0.715716,0.738932 -0.971015,1.180291 -0.507701,0.889355 -0.792529,1.888932 -0.914198,2.897204 -0.124098,1.007898 -0.08681,2.044871 0.193717,3.02519 0.142227,0.487449 0.349214,0.96293 0.660862,1.369044 0.304078,0.404991 0.750197,0.734164 1.269206,0.795773 0.518821,0.06236 1.035493,-0.152573 1.432365,-0.475295 0.404722,-0.322161 0.724406,-0.736595 0.984377,-1.177953 0.06336,-0.109101 0.123258,-0.219979 0.180167,-0.332632 l -0.422383,-0.05768 -0.04504,-0.2168 0.563116,0.07208 c 0.214556,-0.461552 0.377341,-0.945729 0.494805,-1.44103 -0.636192,-0.0876 -1.272196,-0.176226 -1.907547,-0.268405 0.640677,0.06787 1.280887,0.139298 1.921097,0.212032 0.06616,-0.287851 0.118959,-0.5786 0.156338,-0.870658 0.0528,-0.455662 0.06999,-0.916653 0.04971,-1.3754 m 1.942776,0.224372 c -0.01112,0.457719 -0.04355,0.915157 -0.09578,1.370539 -0.03757,0.292058 -0.08364,0.583181 -0.137649,0.872901 -0.636098,-0.07488 -1.272383,-0.14874 -1.908574,-0.22082 0.06392,-0.288505 0.114286,-0.579534 0.149516,-0.871592 0.05607,-0.454633 0.07737,-0.915251 0.06065,-1.374185 z m -2.155089,2.079181 c 0.634696,0.08732 1.269673,0.172579 1.904556,0.257467 -0.09401,0.487261 -0.213434,0.969661 -0.358932,1.444675 l -2.028001,-0.259617 c 0.210538,-0.463421 0.369118,-0.947878 0.482377,-1.442525 z m -0.575824,1.645582 2.050428,0.281213 c -0.254178,0.78418 -0.584235,1.545643 -1.001198,2.259614 -0.438363,0.744261 -0.984938,1.438131 -1.66748,1.976624 -0.340617,0.268499 -0.718986,0.493245 -1.128941,0.635067 -0.407525,0.14874 -0.847944,0.19726 -1.275467,0.14902 -0.426214,-0.0588 -0.837571,-0.213714 -1.190429,-0.456317 -0.357064,-0.236058 -0.661703,-0.543915 -0.918964,-0.883839 -0.51742,-0.68181 -0.857009,-1.481042 -1.094646,-2.298598 -0.236329,-0.820267 -0.369585,-1.669048 -0.416496,-2.521475 -0.04915,-0.853081 -0.01252,-1.709621 0.09158,-2.558028 0.204463,-1.693729 0.683195,-3.373341 1.534971,-4.864106 0.428364,-0.73996 0.949241,-1.440001 1.61627,-1.984571 0.331646,-0.272051 0.701418,-0.501845 1.105392,-0.650025 0.401077,-0.15519 0.837571,-0.212218 1.266309,-0.172112 0.427056,0.05048 0.843739,0.198009 1.203979,0.435376 0.364726,0.231477 0.678617,0.536249 0.945036,0.874864 0.534708,0.679193 0.899527,1.478331 1.147537,2.301777 0.244833,0.826437 0.386032,1.681575 0.439952,2.54092 0.01458,0.224933 0.02308,0.45024 0.02616,0.67564 l -1.971652,-0.227831 c -0.04149,-0.381526 -0.112884,-0.75978 -0.218854,-1.130555 -0.143629,-0.491468 -0.352204,-0.971718 -0.668618,-1.384188 -0.308844,-0.410882 -0.765897,-0.750244 -1.301632,-0.81391 -0.535735,-0.06441 -1.065677,0.157808 -1.468436,0.485485 -0.410983,0.327303 -0.733377,0.745944 -0.995498,1.190948 -0.520784,0.896086 -0.816639,1.902675 -0.946344,2.920577 -0.117464,1.01921 -0.07186,2.065438 0.219508,3.055199 0.148021,0.492591 0.361176,0.973121 0.681981,1.385124 0.312956,0.410227 0.774775,0.747159 1.311071,0.806617 0.536202,0.06039 1.061939,-0.165193 1.460586,-0.494366 0.406684,-0.328892 0.724874,-0.748187 0.982415,-1.193285 0.06392,-0.112093 0.124379,-0.225588 0.181476,-0.340859 z m 39.383888,3.687181 c -0.142041,-0.148553 -0.260719,-0.319169 -0.352298,-0.501004 -0.07756,-0.1565 -0.139237,-0.31945 -0.185961,-0.486233 l 0.39435,0.02571 c 0.02523,0.115365 0.05327,0.230169 0.08971,0.342916 0.113072,0.344598 0.270998,0.678912 0.565358,0.945915 -0.193436,-0.0575 -0.366314,-0.182396 -0.511158,-0.327303 z M 95.25767,83.873547 c -0.01495,-0.31571 0.01028,-0.636749 0.09905,-0.945915 l 0.356035,0.023 c -0.05233,0.294208 -0.06261,0.598512 -0.04672,0.900667 0.0093,0.153321 0.0271,0.306081 0.0514,0.458093 l -0.407432,-0.02636 c -0.02617,-0.135465 -0.04299,-0.272238 -0.05233,-0.409479 z m -0.601802,1.39681 c -0.142041,-0.148553 -0.260719,-0.319263 -0.352298,-0.501005 -0.04766,-0.09564 -0.08971,-0.19352 -0.12522,-0.293366 l 0.380332,0.02459 c 0.01402,0.05048 0.02616,0.101248 0.04205,0.151265 0.114006,0.344504 0.271932,0.678912 0.566292,0.945915 -0.194371,-0.0574 -0.366315,-0.182489 -0.511158,-0.327396 z m -0.654134,-1.66643 c -0.01308,-0.252886 9.35e-4,-0.509419 0.05233,-0.760435 l 0.374725,0.02421 c -0.0271,0.235497 -0.03177,0.475295 -0.01962,0.713783 0.01402,0.217735 0.04299,0.434721 0.08597,0.648903 l -0.399956,-0.0258 c -0.05046,-0.19698 -0.08037,-0.398541 -0.09345,-0.600662 z m -0.527045,1.516287 c -0.14204,-0.148646 -0.259784,-0.319169 -0.352297,-0.501004 -0.03551,-0.07114 -0.06635,-0.143972 -0.09532,-0.217547 l 0.371922,0.02384 c 0.0075,0.02534 0.01308,0.05114 0.02149,0.07619 0.113071,0.344505 0.270998,0.678819 0.565358,0.945729 -0.193437,-0.05759 -0.36538,-0.182209 -0.511159,-0.32721 z m -0.653199,-1.66643 c -0.01215,-0.228392 -9.34e-4,-0.459776 0.03925,-0.687326 l 0.380332,0.02459 c -0.02056,0.211658 -0.02336,0.426588 -0.01215,0.640302 0.01589,0.243257 0.04859,0.485392 0.100924,0.7236 l -0.394349,-0.02524 c -0.06261,-0.220819 -0.09999,-0.447903 -0.114007,-0.675921 z m -0.442941,1.661382 c -0.142975,-0.148647 -0.260719,-0.319169 -0.352298,-0.501004 -0.04672,-0.09302 -0.08691,-0.188379 -0.122416,-0.284953 l 0.380332,0.02431 c 0.01215,0.04777 0.0243,0.09583 0.03925,0.143224 0.114006,0.344505 0.270998,0.678632 0.566292,0.945542 -0.194371,-0.0574 -0.366314,-0.182209 -0.511158,-0.327116 z m -0.654143,-1.666617 c -0.01308,-0.250081 0,-0.503996 0.05046,-0.752207 l 0.375668,0.02412 c -0.02617,0.232879 -0.03084,0.469966 -0.01869,0.705743 0.01402,0.220633 0.04392,0.44033 0.08784,0.657317 l -0.399966,-0.0258 c -0.0514,-0.199691 -0.08223,-0.40415 -0.09532,-0.60917 z m -0.629837,1.524795 c -0.142041,-0.148553 -0.259785,-0.318982 -0.352298,-0.500817 -0.03644,-0.07367 -0.06822,-0.14874 -0.09812,-0.22484 l 0.372856,0.02412 c 0.0084,0.02758 0.01495,0.05563 0.02336,0.08302 0.113072,0.344785 0.270998,0.679006 0.565358,0.945915 -0.193436,-0.0575 -0.36538,-0.182395 -0.511158,-0.327396 z M 90.44137,83.306821 c -0.01215,-0.230543 -9.35e-4,-0.464357 0.04018,-0.693965 l 0.379398,0.0244 c -0.02056,0.214182 -0.02336,0.431168 -0.01215,0.647313 0.01589,0.240826 0.04859,0.480811 0.09999,0.716776 l -0.395283,-0.02552 c -0.06167,-0.218482 -0.09812,-0.443322 -0.112137,-0.669002 z m -0.631706,1.475339 c -0.142039,-0.14874 -0.261185,-0.319169 -0.352763,-0.501004 -0.0186,-0.03758 -0.03579,-0.07545 -0.05242,-0.113588 l 0.359399,0.02318 c 0.11307,0.335062 0.270062,0.658812 0.556946,0.918617 -0.194371,-0.0575 -0.366314,-0.182303 -0.511158,-0.32721 z m -1.715136,4.864293 c 0,0 -0.672636,-0.645443 -0.477705,-1.378018 0.07046,-0.0061 0.08261,-0.04955 0.05121,-0.11256 l 1.282475,-0.06441 c 0.208669,0.432665 0.335571,1.642497 0.865697,1.654651 z m -0.697493,-3.189916 -1.822043,-0.0021 c 0.02009,-0.42612 0.174,-0.891318 0.295108,-1.157853 l 0.0047,-0.01038 1.87213,-0.04618 c -0.126341,0.405833 -0.25941,0.831392 -0.349867,1.216471 z M 86.746546,87.53773 C 86.575723,87.475 86.389576,87.424796 86.194457,87.3989 85.964015,87.36824 85.811041,87.264744 85.714136,87.118061 l 1.57534,0.0017 c -0.0065,0.121442 -0.0019,0.231104 0.0171,0.324311 0.0047,0.02356 0.01262,0.04301 0.01878,0.0646 z M 84.378582,76.514798 c -0.221844,0.267563 -0.419673,0.553077 -0.593579,0.852707 -0.17456,0.298882 -0.333888,0.606272 -0.471724,0.923758 -0.273521,0.635067 -0.497235,1.292197 -0.65703,1.965219 -0.166617,0.670873 -0.284922,1.354553 -0.340149,2.040197 -0.03121,0.342822 -0.04654,0.683306 -0.03701,1.025193 0.0065,0.348899 0.02589,0.696675 0.04289,1.044359 0.03794,0.695179 0.114286,1.386526 0.233152,2.068897 0.126528,0.679941 0.297257,1.355207 0.588066,1.982701 0.2838,0.627775 0.704314,1.20815 1.30023,1.616601 -0.328001,-0.151732 -0.626006,-0.370494 -0.884295,-0.627774 -0.25885,-0.25728 -0.473966,-0.555602 -0.659367,-0.867946 -0.364539,-0.630579 -0.602363,-1.320523 -0.770569,-2.017666 -0.174747,-0.697517 -0.265484,-1.408402 -0.334355,-2.118072 -0.03243,-0.354789 -0.04869,-0.710699 -0.06224,-1.066048 -0.01467,-0.362174 -0.0028,-0.726685 0.02542,-1.085681 0.136714,-1.433737 0.50144,-2.846346 1.158658,-4.139664 0.327814,-0.644602 0.740105,-1.255736 1.25631,-1.775064 0.516204,-0.514466 1.153891,-0.932266 1.859701,-1.109613 -0.661516,0.292712 -1.216128,0.748935 -1.654117,1.287896 z M 80.45537,73.276454 c -0.323235,0.38994 -0.611988,0.806524 -0.865138,1.242835 -0.254178,0.435562 -0.486769,0.883652 -0.687588,1.346138 -0.398834,0.925722 -0.724686,1.88351 -0.957558,2.864297 -0.242496,0.977608 -0.415468,1.974194 -0.495459,2.973117 -0.04439,0.499882 -0.06383,0.996212 -0.05018,1.494505 0.0084,0.508202 0.03355,1.015283 0.05878,1.522084 0.05485,1.01304 0.16615,2.020938 0.339682,3.01528 0.08756,0.497171 0.204183,0.987891 0.338935,1.473096 0.135032,0.485298 0.307443,0.95919 0.517887,1.416349 0.413692,0.91497 1.026522,1.760853 1.895024,2.356093 -0.478078,-0.221193 -0.912329,-0.539802 -1.288549,-0.914783 -0.377716,-0.374982 -0.691045,-0.80989 -0.961109,-1.265085 -0.53153,-0.918897 -0.878034,-1.924458 -1.123147,-2.940489 -0.254739,-1.016686 -0.386687,-2.052818 -0.487143,-3.086892 -0.04691,-0.517272 -0.07382,-1.035758 -0.09485,-1.553777 -0.02149,-0.527835 -0.0019,-1.059223 0.04093,-1.582197 0.199417,-2.089558 0.730854,-4.148359 1.688505,-6.033365 0.478078,-0.939464 1.078853,-1.829941 1.8312,-2.587197 0.752441,-0.74959 1.681777,-1.358479 2.710542,-1.616881 -0.964379,0.426681 -1.772608,1.09157 -2.410762,1.876872 z m -4.255605,18.579129 c -0.377622,-0.374888 -0.690952,-0.809702 -0.961109,-1.264991 -0.531437,-0.91899 -0.877941,-1.924551 -1.123147,-2.940583 -0.254926,-1.016779 -0.38678,-2.052817 -0.48733,-3.086798 -0.04672,-0.517365 -0.07392,-1.035851 -0.09476,-1.553777 -0.02131,-0.527929 -9.34e-4,-1.059317 0.04102,-1.582477 0.199417,-2.089465 0.730854,-4.148079 1.688692,-6.033178 0.477891,-0.939465 1.078666,-1.829941 1.830826,-2.587197 0.752721,-0.749683 1.682058,-1.35848 2.710449,-1.616881 -0.964099,0.426587 -1.772421,1.09157 -2.410482,1.877059 -0.323329,0.389753 -0.611802,0.806244 -0.865045,1.242741 -0.254364,0.435281 -0.486768,0.883558 -0.687681,1.346139 -0.398741,0.925441 -0.724686,1.88351 -0.957558,2.864203 -0.242496,0.977607 -0.415468,1.9741 -0.495553,2.973116 -0.04429,0.499883 -0.06373,0.996399 -0.05009,1.494412 0.0084,0.50839 0.03336,1.015377 0.05869,1.522177 0.05504,1.01304 0.166149,2.020845 0.339682,3.015374 0.08765,0.497078 0.204089,0.987798 0.339308,1.472816 0.134938,0.485391 0.307256,0.959284 0.517607,1.416629 0.413692,0.914877 1.026522,1.760572 1.895118,2.355906 -0.478172,-0.2211 -0.912423,-0.539708 -1.288643,-0.91469 z M 86.4477,83.210995 88.081632,83.18594 c 0.01028,0.164259 0.01533,0.358902 0.01561,0.604028 1.87e-4,0.19053 -0.06083,0.464638 -0.14933,0.781376 l -1.77728,0.04403 c 0.176522,-0.439208 0.317441,-0.923571 0.277072,-1.404382 z m 1.201269,-1.465056 c 0.14662,0.354227 0.250347,0.559715 0.320806,0.777917 l -1.705513,0.02627 c -0.358091,-0.80372 -0.759729,-1.532181 -0.618436,-2.193798 l 1.908201,-0.09405 c -0.127837,0.409198 -0.1412,0.913381 0.09494,1.48366 z m -1.407695,-2.260455 c 0.306135,-0.240733 0.579282,-0.455849 0.817667,-0.654138 l 2.3161,-0.09956 c -0.165963,0.255503 -0.460978,0.338147 -0.87682,0.420417 -0.142881,0.02833 -0.369865,0.17903 -0.574983,0.427709 l -1.891847,0.09321 c 0.06214,-0.0631 0.1312,-0.125835 0.209883,-0.187631 z m 1.86643,-1.989059 1.593562,-0.09807 c -0.06635,0.228673 -0.112511,0.460804 -0.146152,0.661524 l -1.767749,0.07601 c 0.179233,-0.217548 0.289221,-0.424811 0.320339,-0.639461 z m 1.455447,5.596681 c 0.01794,0.278222 0.05719,0.555695 0.124098,0.826624 l -0.386406,-0.02468 c -0.08158,-0.252979 -0.128957,-0.515775 -0.145217,-0.779599 -0.01,-0.194736 -0.0037,-0.391997 0.0228,-0.586827 l 0.386125,0.02478 c -0.01168,0.179124 -0.01084,0.35993 -9.34e-4,0.539708 z m 0.706275,-1.900338 c -0.290622,0.103398 -0.449483,0.324966 -0.546667,0.57299 l -0.296322,-0.01917 c 0.07065,-0.125461 0.157739,-0.243537 0.265485,-0.343476 0.158859,-0.143224 0.376592,-0.230636 0.577504,-0.210349 z m 0.708333,0.401626 c 0.158861,-0.143037 0.376594,-0.230636 0.577507,-0.210162 -0.248571,0.08844 -0.399956,0.263638 -0.499945,0.467629 l -0.280343,-0.01823 c 0.05794,-0.0862 0.12522,-0.167157 0.202781,-0.239237 z m 1.283046,0.141729 c 0.158861,-0.143038 0.376594,-0.230543 0.577506,-0.210349 -0.225209,0.08012 -0.369118,0.231851 -0.469107,0.411068 l -0.269129,-0.01758 c 0.04859,-0.06488 0.100923,-0.127237 0.16073,-0.183143 z m 1.097075,0.005 c 0.157926,-0.143131 0.376594,-0.230636 0.577506,-0.210349 -0.251374,0.08938 -0.403693,0.267938 -0.502748,0.47436 l -0.282212,-0.01804 c 0.05887,-0.08891 0.128023,-0.172299 0.207454,-0.245968 z m 1.180244,0.150142 c 0.158861,-0.142943 0.376594,-0.230449 0.577506,-0.210162 -0.221471,0.07872 -0.364446,0.227458 -0.464435,0.402935 l -0.26726,-0.0172 c 0.04672,-0.06217 0.09719,-0.121908 0.154189,-0.175571 z m 1.834377,0.05955 c -0.140172,0.04983 -0.249505,0.127892 -0.336412,0.222596 l -0.237357,-0.01524 c 0.157927,-0.141355 0.373791,-0.227645 0.573769,-0.207358 z M 53.3706,68.977112 c -0.513308,0.194081 -0.999609,0.449398 -1.439467,0.765108 -0.885323,0.627307 -1.581508,1.471975 -2.124252,2.39218 -0.537978,0.926096 -0.941952,1.926048 -1.242012,2.955915 -0.149797,0.515121 -0.283147,1.035758 -0.396032,1.561817 -0.05607,0.26345 -0.108679,0.527742 -0.159421,0.793997 -0.05336,0.268218 -0.0913,0.519888 -0.122323,0.784461 -0.116623,1.051089 -0.06999,2.126766 0.09419,3.178884 0.158581,1.053988 0.462846,2.087502 0.917095,3.052395 0.460136,0.959097 1.093711,1.850883 1.939319,2.525962 0.420234,0.339176 0.894294,0.615247 1.399285,0.827746 0.505552,0.211564 1.042782,0.3575 1.593376,0.447342 -0.556761,-0.03412 -1.113429,-0.131632 -1.647763,-0.310101 -0.534894,-0.176693 -1.04437,-0.434721 -1.507777,-0.758377 -0.460697,-0.32749 -0.872895,-0.719206 -1.233509,-1.150468 -0.360801,-0.431636 -0.664039,-0.906557 -0.924664,-1.400269 -0.52256,-0.9892 -0.849066,-2.064597 -1.044184,-3.153923 -0.186148,-1.092225 -0.240161,-2.205858 -0.126248,-3.316687 0.03373,-0.274762 0.0799,-0.560182 0.134938,-0.825035 0.05317,-0.26747 0.10868,-0.535968 0.168019,-0.803906 0.121295,-0.535782 0.255673,-1.070535 0.423131,-1.596781 0.336598,-1.050248 0.76599,-2.083856 1.371531,-3.025003 0.597037,-0.94096 1.377325,-1.791985 2.337219,-2.394144 0.480695,-0.296825 0.999796,-0.532322 1.540391,-0.689476 0.540314,-0.159398 1.09857,-0.242603 1.655705,-0.266536 -0.552369,0.07937 -1.092964,0.211004 -1.606552,0.404899 z M 47.374906,87.30644 c -0.383042,-0.320759 -0.708707,-0.703407 -0.99503,-1.109053 -0.566199,-0.81849 -0.966809,-1.734022 -1.266029,-2.66956 -0.305013,-0.936286 -0.498543,-1.900431 -0.645629,-2.867381 -0.07149,-0.484083 -0.121389,-0.97041 -0.162039,-1.45711 l -0.02729,-0.365446 -0.01252,-0.182676 -0.0065,-0.194737 c -3.73e-4,-0.257186 0.01719,-0.506239 0.04271,-0.753703 0.118772,-0.984993 0.342112,-1.942688 0.634322,-2.881685 0.304266,-0.934042 0.663666,-1.854529 1.138286,-2.722007 0.46322,-0.871312 1.036708,-1.694009 1.736164,-2.404708 0.705716,-0.69948 1.56749,-1.276209 2.532898,-1.530498 -0.924758,0.366288 -1.705139,0.980787 -2.336471,1.705228 -0.630959,0.728274 -1.136043,1.552468 -1.553848,2.41415 -0.416309,0.862991 -0.755711,1.762536 -1.024373,2.680779 -0.267447,0.917401 -0.483217,1.85537 -0.585729,2.794741 -0.02523,0.233814 -0.04411,0.467909 -0.04542,0.694805 l 0.0037,0.168279 0.01047,0.179498 0.02364,0.358808 c 0.03411,0.478287 0.0842,0.955077 0.142882,1.430372 0.114099,0.951525 0.293893,1.894355 0.542276,2.817739 0.256701,0.919458 0.590029,1.824145 1.083993,2.645628 0.483685,0.823071 1.163703,1.552187 2.044915,2.010467 -0.463501,-0.176039 -0.895696,-0.439022 -1.275747,-0.76193 z M 40.279427,75.937133 c -0.114193,0.264479 -0.1911,0.541391 -0.217079,0.823259 -0.03112,0.281493 -0.01037,0.566913 0.05205,0.847191 0.06401,0.280185 0.175214,0.552797 0.316413,0.824848 -0.231002,-0.205207 -0.409861,-0.471929 -0.519382,-0.766605 -0.11223,-0.294395 -0.149329,-0.616649 -0.119986,-0.931424 0.03392,-0.314402 0.133349,-0.622539 0.299032,-0.891786 0.162786,-0.269153 0.388649,-0.503341 0.660581,-0.655353 -0.197641,0.236151 -0.355194,0.485485 -0.471629,0.74987 z m -1.058388,-0.137147 c -0.077,0.270835 -0.107278,0.555694 -0.1041,0.841582 -4.68e-4,0.286355 0.02934,0.574392 0.07887,0.859719 0.0271,0.142009 0.05654,0.284578 0.100363,0.423222 0.04336,0.138362 0.09074,0.277473 0.1854,0.396764 -0.138115,-0.07694 -0.22876,-0.214836 -0.308564,-0.34572 -0.07635,-0.135277 -0.136527,-0.278034 -0.183531,-0.424624 -0.09588,-0.292992 -0.140265,-0.599728 -0.144564,-0.908613 0.0019,-0.308138 0.047,-0.623381 0.177458,-0.913382 0.124285,-0.287663 0.359212,-0.551581 0.659553,-0.646004 -0.241562,0.19296 -0.381453,0.447529 -0.460884,0.717056 z m -1.093617,1.262279 c 0.0114,0.150143 0.03317,0.298976 0.06027,0.447249 0.06055,0.295049 0.149143,0.586078 0.32959,0.850183 -0.266419,-0.189034 -0.433504,-0.493525 -0.535268,-0.798017 -0.103073,-0.308418 -0.145218,-0.633477 -0.138583,-0.956292 0.01149,-0.322535 0.06504,-0.64694 0.19082,-0.949748 0.121576,-0.297761 0.325385,-0.593932 0.624978,-0.731734 -0.228479,0.227364 -0.344261,0.509418 -0.424533,0.797082 -0.07532,0.289814 -0.113632,0.589725 -0.119332,0.89029 l -0.0019,0.225681 z m 58.680545,4.644409 c -0.01962,-0.02066 -0.243899,-0.09657 -0.564424,-0.173608 -0.104661,-0.02543 -0.226143,0.112279 -0.347625,0.08891 -0.141106,-0.0273 -0.28595,-0.215116 -0.439204,-0.234842 -0.176616,-0.02225 -0.356036,0.10882 -0.530783,0.07956 -0.126154,-0.02132 -0.32987,-0.169494 -0.446679,-0.189127 -0.124286,-0.02085 -0.167272,-0.02851 -0.287819,-0.04908 -0.170075,-0.02908 -0.330805,0.07535 -0.485928,0.04787 -0.176616,-0.0316 -0.344822,-0.195017 -0.485928,-0.222783 -0.15045,-0.02898 -0.270063,0.09143 -0.361642,0.06881 -0.09251,-0.02262 -0.156992,-0.188939 -0.172878,-0.202776 -0.14204,-0.129949 0.256981,-0.660028 0.256981,-0.660028 0.207454,-0.560182 -0.16073,-1.773661 -0.396218,-1.904077 -0.235488,-0.130323 -0.599934,0.367783 -0.97093,0.03487 -0.208389,-0.187911 -0.288754,-2.136489 -1.064369,-2.02823 -0.212126,0.02954 -0.376594,0.164633 -0.508355,0.353106 l -1.650751,0.101528 c 0.217453,-0.215678 0.587132,-0.331977 1.121465,-0.407516 l 1.037641,-0.04712 -0.674692,-0.125929 c -0.05233,-0.66947 -1.790455,-3.098858 -2.958083,-3.037343 -0.731041,-1.34483 -3.110965,-2.769967 -5.035426,-2.005793 -3.280012,-1.969145 -7.848106,1.777214 -8.905747,7.041357 L 59.95707,76.821252 c 0.03925,-7.823199 -5.159524,-9.66894 -7.078845,-8.657676 -0.856541,-0.778478 -4.141132,-1.212264 -6.314631,1.24835 -2.516545,0.587948 -3.036861,2.31552 -3.036861,2.31552 0,0 -1.325742,0.08143 -1.77887,0.351796 -0.45294,0.270088 -0.3494,2.325617 -0.704501,2.621601 -0.355101,0.295797 -2.262368,-0.115365 -2.262368,-0.115365 0,0 -1.185383,0.23288 -1.327423,1.998408 -0.145779,1.812926 0.922888,2.211186 0.922888,2.211186 l 1.851198,0.21923 c 0,0 0.473032,0.493245 0.26997,1.07493 -0.203061,0.581778 0.192783,2.478189 0.192783,2.478189 0,0 0.234367,0.429299 1.5588,0.21708 -0.235955,-0.549057 -0.407338,-1.126815 -0.514803,-1.714296 -0.09186,-0.477913 -0.140732,-0.96293 -0.166804,-1.448228 -0.02345,-0.486046 -0.0084,-0.972747 0.02579,-1.457203 0.07887,-0.968353 0.256701,-1.930161 0.559939,-2.855602 0.149796,-0.462955 0.333888,-0.91628 0.560685,-1.349037 0.113352,-0.216519 0.243432,-0.424998 0.386687,-0.623474 0.142321,-0.198289 0.309031,-0.386201 0.514616,-0.522133 -0.187082,0.158276 -0.329216,0.356284 -0.454716,0.560557 -0.123912,0.205674 -0.233619,0.419388 -0.326787,0.640208 -0.19381,0.438086 -0.347812,0.89244 -0.477517,1.352402 -0.256514,0.921141 -0.419393,1.866589 -0.491815,2.817085 -0.07793,0.950029 -0.05429,1.908004 0.07962,2.851956 0.0671,0.472023 0.168673,0.939745 0.306228,1.398493 0.131668,0.460617 0.311181,0.907678 0.520877,1.344362 -0.175027,-0.276819 -0.328281,-0.566913 -0.463406,-0.865609 0.614698,2.074694 2.007629,2.637027 2.466176,3.043421 1.189308,2.879161 4.320458,3.241802 5.240731,2.992188 0,0 1.831667,1.127189 4.611454,-0.03169 2.779973,-1.158881 4.964592,-5.178787 4.793583,-6.668337 L 58.599091,82.13691 c -0.248664,0.788388 -0.574049,1.555179 -0.987742,2.276068 -0.433877,0.75015 -0.962884,1.462158 -1.648042,2.021686 -0.340804,0.279249 -0.722911,0.517084 -1.144453,0.67162 -0.417992,0.161548 -0.878221,0.222315 -1.329667,0.179404 -0.449763,-0.05301 -0.888313,-0.209694 -1.263692,-0.457251 -0.380239,-0.241481 -0.703848,-0.557098 -0.977743,-0.904594 -0.548631,-0.69789 -0.917749,-1.510585 -1.169777,-2.345342 -0.248291,-0.837656 -0.390331,-1.701956 -0.444811,-2.569808 -0.05654,-0.867946 -0.02598,-1.739912 0.07336,-2.603745 0.109708,-0.86243 0.289968,-1.716913 0.552837,-2.548212 0.261279,-0.831205 0.607035,-1.639131 1.049417,-2.396948 0.444437,-0.754638 0.999142,-1.460382 1.699812,-2.013739 0.349494,-0.275604 0.740479,-0.508577 1.168096,-0.656756 0.424345,-0.155097 0.888313,-0.207357 1.338637,-0.156126 0.449203,0.06124 0.882146,0.225027 1.250049,0.477819 0.372576,0.246436 0.687027,0.56467 0.95139,0.914036 0.531998,0.700415 0.875605,1.513109 1.117167,2.341697 0.239693,0.831485 0.374071,1.689615 0.421636,2.550643 0.01299,0.225961 0.01962,0.451922 0.02103,0.678258 l 13.225645,1.527038 -0.0641,0.526994 -13.168829,-1.520401 c -0.01467,0.457719 -0.05046,0.914784 -0.106249,1.369511 -0.03523,0.292151 -0.07915,0.583554 -0.131108,0.873649 0.126529,0.01487 0.253057,0.02908 0.379491,0.04403 l 4.21804,0.513625 4.214021,0.544196 2.105656,0.282802 2.103786,0.296639 -2.11229,-0.232226 -2.110515,-0.246061 -4.217946,-0.513905 -4.214208,-0.544196 c -0.127369,-0.01711 -0.254738,-0.0344 -0.382201,-0.05132 -0.09036,0.487261 -0.205678,0.970128 -0.347532,1.445984 l 13.304327,1.703452 c -0.05448,5.323601 2.410389,10.80688 7.020535,9.489162 2.798756,1.658295 5.476592,-0.157435 5.852719,-0.908707 2.601862,-0.40172 3.383552,-2.429202 3.383552,-2.429202 0,0 1.580291,0.251671 1.980247,0.05974 0.399956,-0.191931 0.528913,-1.684286 0.842897,-2.400874 0.313984,-0.716495 0.866269,-0.622446 1.092413,-0.757536 0.227077,-0.134998 0.385938,-0.595147 0.358839,-0.725283 -0.0271,-0.130042 2.968831,0.473518 3.217402,0.446874 0.249505,-0.02646 1.56992,-0.355256 1.747471,-2.06039 0.178485,-1.705227 -0.5719,-2.527271 -0.660675,-2.622535 z m -41.454034,0.02655 c -0.143442,0.03861 -0.304172,0.01113 -0.432009,-0.06834 -0.129798,-0.07797 -0.230909,-0.192492 -0.314731,-0.31356 -0.164842,-0.246809 -0.267821,-0.524282 -0.350709,-0.803158 -0.08214,-0.280185 -0.131948,-0.567568 -0.16643,-0.855792 -0.03402,-0.288693 -0.05009,-0.579254 -0.04364,-0.870751 0.0114,-0.290094 0.04177,-0.585518 0.13092,-0.867572 0.08354,-0.277941 0.187456,-0.558032 0.350989,-0.805496 0.160917,-0.247837 0.363324,-0.472583 0.608251,-0.642265 0.245767,-0.167437 0.521905,-0.288131 0.809256,-0.356938 -0.560405,0.185013 -1.046894,0.55504 -1.327984,1.051276 -0.143068,0.245688 -0.244926,0.511008 -0.32174,0.786611 -0.08158,0.270556 -0.106531,0.553732 -0.113633,0.838217 -0.01962,0.568877 0.04299,1.142615 0.175402,1.696907 0.06887,0.276071 0.158767,0.55046 0.30576,0.794371 0.07223,0.121628 0.160824,0.236806 0.278194,0.318608 0.115781,0.08208 0.265111,0.122002 0.412104,0.09788 z"
                       stroke="#f7f0f0"
                       stroke-width="0.092514"
                       id="path19224"
                       style="fill:#f7f0f0;fill-opacity:1" />
                  </g>
                </g>
              </g>
              <g
                 id="g49663"
                 transform="matrix(7.3505635,0,0,5.0435868,-659.03872,41.868741)"
                 style="stroke:#f7f0f0;stroke-opacity:1">
                <path
                   style="fill:none;stroke:#f7f0f0;stroke-width:0.264583px;stroke-linecap:butt;stroke-linejoin:miter;stroke-opacity:1"
                   d="m 165.36458,38.364583 c -1.32292,1.322916 -2.64583,2.645834 -2.42524,3.086778 0.2206,0.440944 1.98445,-1.8e-5 3.74816,-0.440945"
                   id="path49493" />
                <path
                   style="fill:none;stroke:#f7f0f0;stroke-width:0.264583px;stroke-linecap:butt;stroke-linejoin:miter;stroke-opacity:1"
                   d="m 165.36458,39.6875 c -0.44102,1.764076 -0.88199,3.527963 -1.32292,5.291666"
                   id="path49497" />
              </g>
              <g
                 style="fill:none"
                 id="g1049"
                 transform="matrix(2.3581477,0,0,2.4944885,404.32094,-10.306008)">
                <path
                   d="m 142.702,72.0145 c 0,18.4303 -7.342,36.1055 -20.411,49.1375 -13.069,13.033 -30.7943,20.354 -49.2765,20.354 -18.4822,0 -36.2074,-7.321 -49.2763,-20.354 C 10.6694,108.12 3.32733,90.4448 3.32733,72.0145 3.32733,62.8888 5.12984,53.8524 8.63195,45.4213 12.1341,36.9902 17.2672,29.3295 23.7382,22.8766 30.2093,16.4237 37.8915,11.305 46.3464,7.81274 54.8012,4.32046 63.8631,2.52301 73.0145,2.52301 c 9.1515,0 18.2133,1.79745 26.6682,5.28973 8.4553,3.49226 16.1373,8.61096 22.6083,15.06386 6.471,6.4529 11.604,14.1136 15.106,22.5447 3.502,8.4311 5.305,17.4675 5.305,26.5932 z"
                   stroke="#f7f0f0"
                   stroke-width="4.84464"
                   stroke-linejoin="round"
                   id="path848" />
                <path
                   d="m 122.762,71.9951 c 0,13.2413 -5.26,25.9403 -14.623,35.3029 -9.3627,9.363 -22.0617,14.624 -35.303,14.624 -13.2413,0 -25.9403,-5.261 -35.3033,-14.624 -9.363,-9.3626 -14.6231,-22.0616 -14.6231,-35.3029 0,-13.2413 5.2601,-25.9403 14.6231,-35.3033 9.363,-9.363 22.062,-14.6231 35.3033,-14.6231 13.2413,0 25.9403,5.2601 35.303,14.6231 9.363,9.363 14.623,22.062 14.623,35.3033 z"
                   stroke="#f7f0f0"
                   stroke-width="4.84464"
                   stroke-linejoin="round"
                   id="path850" />
                <path
                   d="m 16.8617,68.6577 -5.8371,-2.2488 -0.0283,-3.3988 0.2408,-7e-4 0.0022,0.2709 c 0.0021,0.2463 0.0493,0.4432 0.1416,0.5907 0.0616,0.1025 0.1643,0.1843 0.308,0.2454 0.1045,0.0449 0.3758,0.0666 0.8141,0.0653 l 5.8182,-0.0171 c 0.4513,-0.0013 0.7331,-0.0247 0.8455,-0.0702 0.1124,-0.0455 0.2115,-0.1382 0.2971,-0.278 0.0813,-0.1398 0.1209,-0.3267 0.119,-0.5607 l -0.0023,-0.2709 0.2408,-7e-4 0.0363,4.3594 -0.2408,7e-4 -0.0022,-0.2709 C 19.6125,66.827 19.5653,66.6301 19.473,66.4826 19.4114,66.3801 19.3066,66.2983 19.1585,66.2372 19.054,66.1923 18.7805,66.1706 18.3379,66.1719 l -6.5406,0.0193 8.0772,3.178 0.0012,0.1478 -7.9649,3.2746 6.2153,-0.0183 c 0.4338,-0.0013 0.7006,-0.0123 0.8002,-0.0332 0.2165,-0.054 0.3934,-0.1694 0.5308,-0.3464 0.133,-0.181 0.1979,-0.4623 0.1947,-0.8441 l 0.2408,-7e-4 0.0238,2.857 -0.2408,7e-4 -7e-4,-0.0862 c 0.0028,-0.1848 -0.029,-0.3571 -0.0954,-0.517 -0.0707,-0.1599 -0.1629,-0.2807 -0.2764,-0.3625 -0.1135,-0.0817 -0.2724,-0.1449 -0.4766,-0.1894 -0.0478,-0.0081 -0.2692,-0.0115 -0.664,-0.0104 l -5.584,0.0165 c -0.4468,0.0013 -0.7243,0.0247 -0.8324,0.0702 -0.1125,0.0455 -0.2093,0.1381 -0.2906,0.2779 -0.0856,0.1398 -0.1274,0.3267 -0.1255,0.5607 l 0.0022,0.2648 -0.2408,7e-4 -0.0284,-3.4112 z"
                   fill="#f7f0f0"
                   stroke="#f7f0f0"
                   stroke-width="0.303883"
                   id="path948" />
                <path
                   d="m 18.9064,55.9995 -0.6964,2.8717 0.7546,0.527 c 0.252,0.1737 0.4689,0.2807 0.6507,0.3209 0.2411,0.0534 0.441,8e-4 0.5998,-0.1578 0.0938,-0.0929 0.209,-0.3475 0.3456,-0.7637 l 0.2347,0.052 -0.6557,2.7038 -0.2347,-0.052 c 0.0243,-0.302 -0.0445,-0.5699 -0.2061,-0.8036 -0.166,-0.2347 -0.5432,-0.5624 -1.1319,-0.9833 l -6.159,-4.4267 0.0277,-0.1139 7.7653,-1.3704 c 0.7361,-0.1319 1.2126,-0.2686 1.4296,-0.41 0.1641,-0.1069 0.2867,-0.2819 0.3679,-0.525 l 0.2348,0.0519 -0.9538,3.9328 -0.2347,-0.0519 0.0393,-0.1619 c 0.0766,-0.3158 0.0838,-0.5479 0.0218,-0.6964 -0.0464,-0.1029 -0.133,-0.1683 -0.2598,-0.1964 -0.0762,-0.0169 -0.1573,-0.0222 -0.2435,-0.016 -0.04,-4e-4 -0.2131,0.0244 -0.5194,0.0746 z m -0.5189,0.1 -3.2562,0.5553 2.6602,1.9027 z"
                   fill="#f7f0f0"
                   stroke="#f7f0f0"
                   stroke-width="0.303883"
                   id="path950" />
                <path
                   d="m 20.0329,44.7604 4.8345,-1.0824 c 0.6809,-0.1535 1.1768,-0.3262 1.4878,-0.518 0.2232,-0.1405 0.3889,-0.3202 0.4973,-0.5391 l 0.2182,0.0975 -1.9457,3.9293 -0.2181,-0.0975 c 0.0995,-0.2591 0.1372,-0.4371 0.1131,-0.5339 -0.0222,-0.1006 -0.0765,-0.1702 -0.163,-0.2088 -0.1651,-0.0737 -0.5601,-0.0418 -1.1851,0.0959 l -3.1625,0.7011 0.1099,0.3889 2.1815,0.9745 c 0.4167,0.1861 0.6871,0.2797 0.8114,0.2809 0.1242,0.0011 0.2549,-0.0447 0.3921,-0.1375 0.1332,-0.0946 0.2687,-0.281 0.4065,-0.5593 l 0.2182,0.0975 -1.8851,3.8068 -0.2181,-0.0974 0.124,-0.2505 c 0.1084,-0.2189 0.1544,-0.4136 0.138,-0.584 -0.0073,-0.1211 -0.0649,-0.2374 -0.1728,-0.3491 -0.0741,-0.0829 -0.3117,-0.2139 -0.7126,-0.393 l -5.2593,-2.3494 c -0.4088,-0.1826 -0.6744,-0.2763 -0.7968,-0.2811 -0.1224,-0.0049 -0.2522,0.0391 -0.3893,0.1319 -0.1393,0.0873 -0.2612,0.2367 -0.366,0.4482 l -0.124,0.2505 -0.2181,-0.0975 1.8602,-3.7568 0.2182,0.0975 c -0.1268,0.256 -0.184,0.4684 -0.1715,0.6371 0.0073,0.121 0.062,0.2383 0.1641,0.3519 0.0762,0.0885 0.3168,0.2231 0.7217,0.404 l 2.4881,1.1114 -1.0135,-3.8714 c -0.1412,-0.5389 -0.312,-0.8531 -0.5125,-0.9426 -0.1493,-0.0667 -0.3068,-0.0396 -0.4722,0.0813 -0.0837,0.0623 -0.2113,0.2522 -0.383,0.5698 l -0.2181,-0.0975 1.4578,-2.9442 0.2182,0.0975 c -0.1108,0.2722 -0.1626,0.5028 -0.1554,0.6918 0.0052,0.1835 0.1055,0.6497 0.3011,1.3986 z"
                   fill="#f7f0f0"
                   stroke="#f7f0f0"
                   stroke-width="0.303883"
                   id="path952" />
                <path
                   d="m 23.1818,34.4493 2.8801,2.0446 0.105,-0.1328 c 0.3346,-0.423 0.4362,-0.8296 0.3049,-1.2198 -0.1313,-0.3902 -0.451,-0.8066 -0.9591,-1.2492 l 0.1478,-0.1869 3.7045,2.6298 -0.1478,0.1869 c -0.4346,-0.2471 -0.8312,-0.3981 -1.1898,-0.4529 -0.3559,-0.0581 -0.6435,-0.0344 -0.8628,0.0711 -0.2227,0.103 -0.4598,0.3135 -0.7114,0.6316 l 1.9932,1.4149 c 0.3895,0.2766 0.6395,0.431 0.7498,0.4632 0.1129,0.029 0.2309,0.0206 0.3539,-0.0252 0.1231,-0.0457 0.2599,-0.1637 0.4103,-0.3539 l 0.3151,-0.3984 c 0.4928,-0.623 0.734,-1.2301 0.7236,-1.8212 -0.0079,-0.5944 -0.26,-1.1958 -0.7564,-1.8042 l 0.1439,-0.182 2.0115,1.8964 -4.5595,5.7647 -0.1931,-0.1371 0.1751,-0.2213 c 0.153,-0.1935 0.2397,-0.3752 0.26,-0.5451 0.0187,-0.1198 -0.0129,-0.2447 -0.0948,-0.3745 -0.055,-0.0954 -0.2599,-0.269 -0.6147,-0.5208 l -4.6541,-3.304 c -0.32,-0.2272 -0.523,-0.3585 -0.609,-0.3939 -0.1477,-0.0537 -0.2896,-0.0597 -0.4257,-0.0181 -0.196,0.0555 -0.3795,0.1914 -0.5507,0.4079 l -0.1751,0.2213 -0.193,-0.1371 4.4155,-5.5826 2.0923,1.4853 -0.1478,0.1869 c -0.5866,-0.2679 -1.0599,-0.394 -1.42,-0.3782 -0.3575,0.0125 -0.7129,0.139 -1.0662,0.3798 -0.2078,0.1391 -0.5115,0.4612 -0.9109,0.9662 z"
                   fill="#f7f0f0"
                   stroke="#f7f0f0"
                   stroke-width="0.303883"
                   id="path954" />
                <path
                   d="m 38.6809,19.6159 0.1473,0.1809 c -0.2061,0.1965 -0.3311,0.3886 -0.375,0.5762 -0.0601,0.2617 -0.0272,0.832 0.0985,1.711 l 0.4416,3.5009 1.3061,1.6033 c 0.2787,0.3422 0.4715,0.5419 0.5783,0.5992 0.1041,0.054 0.2376,0.0737 0.4005,0.059 0.1637,-0.0205 0.3382,-0.0981 0.5236,-0.2329 l 0.3912,-0.2845 0.1473,0.1809 -3.9176,2.8491 -0.1474,-0.1808 0.3656,-0.2659 c 0.2059,-0.1497 0.341,-0.3025 0.4054,-0.4583 0.0521,-0.1105 0.0587,-0.2399 0.0199,-0.3881 -0.026,-0.1057 -0.1743,-0.3247 -0.4451,-0.6571 L 37.538,27.0792 33.5823,25.4334 C 32.7997,25.11 32.3016,24.9481 32.0881,24.9476 31.872,24.944 31.651,25.0216 31.4253,25.1806 l -0.1473,-0.1809 3.3462,-2.4336 0.1473,0.1809 -0.1493,0.1086 c -0.2025,0.1472 -0.3223,0.2785 -0.3596,0.3938 -0.0338,0.1128 -0.0255,0.2002 0.025,0.2621 0.0956,0.1173 0.4731,0.3124 1.1326,0.5853 l 3.0491,1.2775 -0.3724,-2.9128 C 38.011,21.7455 37.903,21.3077 37.773,21.148 37.7013,21.06 37.5969,21.0192 37.4599,21.0254 c -0.183,0.0034 -0.4374,0.1105 -0.763,0.3214 l -0.1473,-0.1809 z"
                   fill="#f7f0f0"
                   stroke="#f7f0f0"
                   stroke-width="0.303883"
                   id="path956" />
                <path
                   d="m 45.9686,15.8058 c 1.2457,-0.6127 2.4521,-0.7232 3.6191,-0.3314 1.1709,0.39 2.039,1.1454 2.6045,2.2663 0.483,0.9575 0.6125,1.9324 0.3884,2.9247 -0.296,1.3157 -1.1584,2.2936 -2.587,2.9337 -1.4326,0.6418 -2.7725,0.6779 -4.0196,0.1082 -0.9854,-0.4504 -1.7299,-1.1748 -2.2336,-2.1731 -0.5654,-1.1209 -0.6351,-2.234 -0.209,-3.3395 0.4281,-1.111 1.2405,-1.9073 2.4372,-2.3888 z m 0.2502,0.3248 c -0.728,0.3262 -1.104,0.9269 -1.1279,1.8022 -0.0172,0.7175 0.2476,1.6181 0.7943,2.7019 0.6497,1.2878 1.3687,2.1328 2.157,2.535 0.5499,0.2814 1.1243,0.288 1.7232,0.0197 0.4031,-0.1806 0.6929,-0.4242 0.8694,-0.7308 0.2246,-0.3919 0.3018,-0.8906 0.2314,-1.4961 -0.0722,-0.6092 -0.3198,-1.3332 -0.743,-2.172 -0.5036,-0.9984 -0.9778,-1.7005 -1.4225,-2.1065 -0.4466,-0.4096 -0.8741,-0.6481 -1.2823,-0.7155 -0.4044,-0.069 -0.8042,-0.015 -1.1996,0.1621 z"
                   fill="#f7f0f0"
                   stroke="#f7f0f0"
                   stroke-width="0.303883"
                   id="path958" />
                <path
                   d="m 53.9264,12.8219 4.4315,-0.98 0.0559,0.2219 -0.2216,0.049 c -0.3334,0.0737 -0.5549,0.1586 -0.6644,0.2545 -0.1062,0.091 -0.1722,0.2006 -0.1979,0.3286 -0.0215,0.1272 0.0262,0.4226 0.1429,0.8863 l 1.0026,3.9813 c 0.1832,0.7276 0.3615,1.1967 0.5348,1.4073 0.1776,0.2097 0.419,0.3631 0.7241,0.4602 0.3052,0.0971 0.6603,0.1009 1.0655,0.0113 0.4642,-0.1027 0.8342,-0.2879 1.1099,-0.5556 0.2788,-0.2727 0.4547,-0.6006 0.5275,-0.9839 0.077,-0.3841 0.0068,-1.0079 -0.2106,-1.8714 l -0.835,-3.3158 C 61.3,12.3518 61.1945,12.1009 61.075,11.9627 60.9556,11.8245 60.8271,11.739 60.6896,11.7061 60.4765,11.6562 60.1969,11.6695 59.8509,11.746 l -0.0559,-0.2218 2.9691,-0.6566 0.0559,0.2218 -0.1773,0.0392 c -0.2405,0.0532 -0.4294,0.1435 -0.5667,0.2709 -0.1372,0.1274 -0.2185,0.291 -0.244,0.4908 -0.0226,0.14 0.0078,0.3759 0.0914,0.7077 l 0.7776,3.088 c 0.2406,0.9554 0.3467,1.6598 0.3183,2.1134 -0.0241,0.4527 -0.2488,0.9138 -0.6741,1.3834 -0.4253,0.4697 -1.0833,0.803 -1.9738,0.9999 -0.7428,0.1642 -1.3404,0.1972 -1.7929,0.099 -0.6173,-0.1336 -1.0903,-0.3751 -1.4188,-0.7244 -0.3286,-0.3493 -0.578,-0.8618 -0.7481,-1.5374 l -1.0025,-3.9813 c -0.1178,-0.4677 -0.2182,-0.7515 -0.3013,-0.8513 -0.084,-0.1038 -0.2021,-0.1747 -0.3543,-0.2128 -0.1522,-0.0381 -0.4093,-0.015 -0.7712,0.0693 z"
                   fill="#f7f0f0"
                   stroke="#f7f0f0"
                   stroke-width="0.303883"
                   id="path960" />
                <path
                   d="m 69.615,14.9116 0.0791,2.339 c 0.0152,0.4513 0.0531,0.7358 0.1135,0.8533 0.0646,0.1133 0.1718,0.203 0.3216,0.2689 0.1498,0.066 0.4263,0.0938 0.8297,0.0834 l 0.0077,0.2277 -4.5145,0.1164 -0.0077,-0.2278 c 0.4076,-0.0105 0.6818,-0.0524 0.8226,-0.1259 0.1449,-0.0776 0.2436,-0.1747 0.2961,-0.291 0.0569,-0.1165 0.0776,-0.4004 0.0624,-0.8517 L 67.4423,11.8874 C 67.427,11.4361 67.3871,11.1537 67.3225,11.0404 67.2621,10.9228 67.157,10.8311 67.0072,10.7651 66.8574,10.6992 66.5808,10.6714 66.1775,10.6818 l -0.0077,-0.2278 4.0981,-0.1056 c 1.0669,-0.0274 1.8498,0.0222 2.3489,0.149 0.4991,0.1267 0.9112,0.3749 1.2362,0.7443 0.3248,0.3654 0.4958,0.8004 0.5129,1.3051 0.0208,0.6155 -0.1962,1.1304 -0.6509,1.5446 -0.2907,0.2621 -0.7027,0.4637 -1.2362,0.6048 l 2.2163,2.7705 c 0.2899,0.358 0.4949,0.5807 0.615,0.6679 0.1821,0.1226 0.3905,0.1871 0.6251,0.1934 l 0.0077,0.2277 -2.7777,0.0716 -2.9713,-3.7306 z m -0.1384,-4.0931 0.1236,3.6561 0.3708,-0.0095 c 0.6028,-0.0156 1.0521,-0.0785 1.3478,-0.1888 0.2956,-0.1144 0.5234,-0.3092 0.6834,-0.5843 0.1642,-0.2794 0.2388,-0.6387 0.224,-1.0777 -0.0215,-0.636 -0.1957,-1.1018 -0.5225,-1.3973 -0.3225,-0.2956 -0.8329,-0.4344 -1.5311,-0.4164 z"
                   fill="#f7f0f0"
                   stroke="#f7f0f0"
                   stroke-width="0.303883"
                   id="path962" />
                <path
                   d="m 88.7934,12.2945 c 1.3702,0.3075 2.3639,0.9695 2.9809,1.9859 0.6212,1.0176 0.76,2.1237 0.4163,3.3184 -0.2936,1.0207 -0.8681,1.836 -1.7234,2.4459 -1.1333,0.8095 -2.464,1.0143 -3.9923,0.6144 -1.5324,-0.4009 -2.5762,-1.2015 -3.1314,-2.4017 -0.4385,-0.9485 -0.5046,-1.9548 -0.1985,-3.0189 0.3437,-1.1948 1.0591,-2.0774 2.1461,-2.648 1.0925,-0.5734 2.2599,-0.6721 3.5023,-0.2959 z m -0.0339,0.3995 c -0.7788,-0.2037 -1.4793,0.0171 -2.1017,0.6625 -0.5083,0.5306 -0.9286,1.3734 -1.2609,2.5286 -0.3949,1.3727 -0.4314,2.4542 -0.1095,3.2446 0.2238,0.552 0.6561,0.9118 1.2967,1.0794 0.4313,0.1129 0.8198,0.1082 1.1656,-0.014 0.4413,-0.1568 0.8442,-0.4853 1.2087,-0.9854 0.3656,-0.5042 0.677,-1.2032 0.9342,-2.0973 0.3061,-1.0642 0.4302,-1.8867 0.3722,-2.4676 -0.0568,-0.5849 -0.2173,-1.0288 -0.4813,-1.3319 -0.2598,-0.3019 -0.6011,-0.5082 -1.024,-0.6188 z"
                   fill="#f7f0f0"
                   stroke="#f7f0f0"
                   stroke-width="0.303883"
                   id="path964" />
                <path
                   d="m 108.509,20.9698 -0.118,0.198 c -0.15,-0.0663 -0.294,-0.0938 -0.43,-0.0822 -0.137,0.0115 -0.282,0.063 -0.437,0.1545 -0.048,0.0306 -0.332,0.2433 -0.851,0.6381 l -5.98,4.6975 -0.221,-0.1187 0.881,-5.7009 -4.8865,3.5532 -0.2099,-0.1125 0.9992,-7.283 c 0.0977,-0.7339 0.1328,-1.1907 0.105,-1.3703 -0.0277,-0.1797 -0.1562,-0.3451 -0.3855,-0.4963 l 0.1179,-0.1981 3.3358,1.7887 -0.118,0.1981 c -0.272,-0.1368 -0.4754,-0.1939 -0.6087,-0.1712 -0.1274,0.0212 -0.2219,0.0835 -0.2836,0.187 -0.0807,0.1356 -0.1592,0.4726 -0.2353,1.0109 l -0.5888,4.3317 2.8474,-2.1036 0.141,-0.9413 c 0.077,-0.5144 0.11,-0.8665 0.098,-1.0564 -0.009,-0.1935 -0.058,-0.354 -0.147,-0.4816 -0.085,-0.1256 -0.247,-0.2523 -0.485,-0.38 l 0.118,-0.1981 3.728,1.9987 -0.118,0.198 c -0.263,-0.1363 -0.462,-0.2171 -0.597,-0.2422 -0.094,-0.0177 -0.182,-0.0083 -0.264,0.028 -0.079,0.0328 -0.141,0.0867 -0.186,0.1616 -0.049,0.0821 -0.114,0.3793 -0.194,0.8917 l -0.646,4.1883 3.107,-2.438 c 0.323,-0.2502 0.535,-0.4261 0.636,-0.5277 0.1,-0.1015 0.18,-0.2023 0.24,-0.3022 0.087,-0.1463 0.102,-0.2889 0.045,-0.4278 -0.055,-0.1424 -0.23,-0.2973 -0.524,-0.4647 l 0.118,-0.1981 z"
                   fill="#f7f0f0"
                   stroke="#f7f0f0"
                   stroke-width="0.303883"
                   id="path966" />
                <path
                   d="m 113.572,25.1961 -0.546,6.5942 2.587,-2.6148 c 0.361,-0.3647 0.549,-0.6606 0.565,-0.8877 0.019,-0.3084 -0.154,-0.6185 -0.518,-0.9303 l 0.164,-0.166 2.133,1.89 -0.164,0.1659 c -0.305,-0.209 -0.532,-0.3287 -0.681,-0.3593 -0.142,-0.0307 -0.3,-0.0102 -0.472,0.0616 -0.166,0.0716 -0.391,0.2509 -0.675,0.538 l -5.009,5.0636 -0.162,-0.1434 0.642,-8.9321 -3.824,3.8661 c -0.346,0.3498 -0.495,0.6606 -0.448,0.9322 0.05,0.2745 0.184,0.5088 0.403,0.7028 l 0.153,0.135 -0.164,0.166 -2.291,-2.0292 0.164,-0.1659 c 0.359,0.312 0.675,0.4625 0.947,0.4517 0.273,-0.0108 0.569,-0.1776 0.889,-0.5006 l 4.245,-4.2922 0.022,-0.2838 c 0.023,-0.2824 0.008,-0.4954 -0.047,-0.639 -0.054,-0.1437 -0.177,-0.3057 -0.368,-0.486 l 0.164,-0.166 z"
                   fill="#f7f0f0"
                   stroke="#f7f0f0"
                   stroke-width="0.303883"
                   id="path968" />
                <path
                   d="m 120.958,40.5712 -2.092,1.1923 c -0.408,0.2326 -0.651,0.4024 -0.729,0.5094 -0.072,0.1085 -0.102,0.2405 -0.088,0.3961 0.016,0.1591 0.127,0.4005 0.334,0.7242 l -0.206,0.1173 -2.327,-3.6365 0.206,-0.1173 c 0.211,0.3307 0.386,0.5362 0.523,0.6164 0.144,0.0816 0.282,0.1156 0.415,0.1022 0.135,-0.0099 0.407,-0.1312 0.815,-0.3638 l 4.895,-2.7906 c 0.408,-0.2325 0.648,-0.403 0.72,-0.5115 0.079,-0.107 0.111,-0.2383 0.098,-0.3939 -0.014,-0.1556 -0.125,-0.397 -0.335,-0.7242 l 0.206,-0.1174 1.997,3.1193 c 0.657,1.0274 0.936,1.8745 0.837,2.5412 -0.1,0.6668 -0.439,1.165 -1.018,1.4948 -0.489,0.2791 -1.001,0.3737 -1.534,0.2839 -0.533,-0.0898 -1.025,-0.3521 -1.475,-0.7869 -0.308,-0.2906 -0.722,-0.8422 -1.242,-1.655 z m 3.694,-2.1056 -3.26,1.8582 c 0.067,0.1204 0.119,0.2105 0.158,0.2703 0.274,0.4293 0.62,0.6839 1.035,0.7639 0.42,0.0779 0.911,-0.0438 1.475,-0.3652 0.56,-0.3192 0.895,-0.6689 1.006,-1.0491 0.111,-0.3802 0.019,-0.8008 -0.276,-1.2618 z"
                   fill="#f7f0f0"
                   stroke="#f7f0f0"
                   stroke-width="0.303883"
                   id="path970" />
                <path
                   d="m 126.318,53.6243 -3.015,0.729 -2.77,-6.947 0.225,-0.0795 0.103,0.2596 c 0.091,0.227 0.206,0.3946 0.347,0.503 0.097,0.08 0.225,0.1225 0.384,0.1276 0.114,0.0079 0.379,-0.0612 0.793,-0.2073 l 5.43,-1.9175 c 0.422,-0.149 0.678,-0.2633 0.766,-0.3429 0.089,-0.0796 0.146,-0.1984 0.171,-0.3564 0.03,-0.1556 0.002,-0.343 -0.086,-0.5623 l -0.103,-0.2596 0.225,-0.0796 1.664,4.1717 -0.225,0.0795 -0.136,-0.3404 c -0.091,-0.227 -0.206,-0.3946 -0.347,-0.503 -0.096,-0.08 -0.225,-0.1244 -0.386,-0.1334 -0.115,-0.0079 -0.379,0.0612 -0.793,0.2074 l -5.26,1.8572 c -0.422,0.1491 -0.682,0.2675 -0.782,0.3552 -0.095,0.0863 -0.144,0.2067 -0.147,0.3614 0.002,0.1091 0.076,0.3483 0.223,0.7176 l 0.26,0.6519 c 0.166,0.4155 0.381,0.7345 0.646,0.957 0.265,0.2224 0.603,0.3749 1.016,0.4575 0.414,0.0863 0.982,0.1052 1.703,0.0567 z"
                   fill="#f7f0f0"
                   stroke="#f7f0f0"
                   stroke-width="0.303883"
                   id="path972" />
                <path
                   d="m 127.312,60.9393 -0.511,-2.9118 -0.908,-0.2172 c -0.303,-0.0704 -0.546,-0.0915 -0.73,-0.0635 -0.244,0.0373 -0.407,0.1579 -0.49,0.3619 -0.05,0.1199 -0.054,0.3972 -0.013,0.832 l -0.237,0.0362 -0.481,-2.7416 0.238,-0.0362 c 0.099,0.2887 0.27,0.5123 0.513,0.6708 0.247,0.1578 0.727,0.3259 1.44,0.5043 l 7.464,1.8885 0.02,0.1155 -6.619,4.0618 c -0.626,0.3868 -1.011,0.6848 -1.155,0.894 -0.108,0.158 -0.151,0.3643 -0.128,0.6188 l -0.238,0.0362 -0.699,-3.9878 0.237,-0.0362 0.029,0.1642 c 0.056,0.3201 0.143,0.5379 0.26,0.6532 0.084,0.0787 0.19,0.1082 0.318,0.0887 0.077,-0.0117 0.155,-0.036 0.232,-0.0728 0.037,-0.0139 0.187,-0.0992 0.449,-0.2558 z m 0.438,-0.2792 2.783,-1.6853 -3.22,-0.807 z"
                   fill="#f7f0f0"
                   stroke="#f7f0f0"
                   stroke-width="0.303883"
                   id="path974" />
                <path
                   d="m 134.273,69.7404 -5.635,3.8937 3.791,0.1537 c 0.529,0.0215 0.89,-0.0358 1.082,-0.1717 0.259,-0.1867 0.394,-0.5119 0.404,-0.9757 l 0.241,0.0098 -0.111,2.7559 -0.241,-0.0097 c -0.033,-0.3547 -0.087,-0.5951 -0.16,-0.7213 -0.069,-0.1219 -0.189,-0.2213 -0.359,-0.298 -0.167,-0.0725 -0.458,-0.1171 -0.874,-0.134 l -7.343,-0.2978 0.009,-0.2091 7.569,-5.3434 -5.606,-0.2273 c -0.507,-0.0206 -0.854,0.0742 -1.04,0.2844 -0.187,0.2142 -0.286,0.4628 -0.297,0.7458 l -0.008,0.1969 -0.241,-0.0098 0.119,-2.959 0.241,0.0098 c -0.014,0.4595 0.072,0.7834 0.26,0.9718 0.188,0.1884 0.516,0.292 0.984,0.311 l 6.224,0.2524 0.242,-0.1689 c 0.241,-0.1669 0.401,-0.3165 0.48,-0.4488 0.079,-0.1324 0.129,-0.3255 0.147,-0.5794 l 0.241,0.0098 z"
                   fill="#f7f0f0"
                   stroke="#f7f0f0"
                   stroke-width="0.303883"
                   id="path976" />
              </g>
              <path
                 style="fill:none;stroke:#f7f0f0;stroke-width:2.47611px;stroke-linecap:butt;stroke-linejoin:miter;stroke-opacity:1"
                 d="m 582.65272,239.39195 c -3.7626,5.22043 -7.52559,10.44142 -9.74902,14.05139 -2.22344,3.60997 -2.90753,5.60835 -3.28737,7.7908 -0.37984,2.18246 -0.45585,4.5479 0.55221,5.48452 1.00807,0.93661 3.09833,0.44722 5.58699,-1.0413 2.48865,-1.48851 5.37704,-3.97632 8.79751,-7.30018 3.42047,-3.32387 7.37303,-7.48381 10.09033,-10.72591 2.71729,-3.2421 4.19951,-5.56679 4.86459,-6.46355 0.66509,-0.89676 0.51307,-0.36657 -1.50128,2.93654 -2.01435,3.30311 -5.89091,9.37991 -8.01922,13.33665 -2.12831,3.95675 -2.50836,5.79202 -2.54553,7.07726 -0.0372,1.28525 0.26687,2.01936 0.72375,2.46686 0.45689,0.44751 1.06498,0.61065 1.6702,0.77301"
                 id="path922" />
            </g>
            <g
               id="g18964"
               style="fill:none"
               transform="matrix(0.93447638,0,0,0.93488361,0.03890998,3.3092124)" />
          </g>
          <path
             style="fill:none;stroke:#f7f0f0;stroke-width:0.264583px;stroke-linecap:butt;stroke-linejoin:miter;stroke-opacity:1"
             d="m 12.668347,11.66602 c 0.328326,-0.08419 0.656469,-0.168325 0.866869,-0.17239 0.2104,-0.0041 0.302951,0.07166 0.395215,0.147148"
             id="path1742" />
          <path
             style="fill:none;stroke:#f7f0f0;stroke-width:0.264583px;stroke-linecap:butt;stroke-linejoin:miter;stroke-opacity:1"
             d="m 14.316885,11.672453 c -0.0084,0.07595 -0.01685,0.151682 1.32e-4,0.206371 0.01699,0.05469 0.05905,0.08834 0.201984,0.02931 0.142932,-0.05903 0.38693,-0.210482 0.492042,-0.23141 0.105111,-0.02093 0.07146,0.08845 0.0041,0.252499 -0.06731,0.164048 -0.168278,0.382805 -0.344941,0.609919 -0.176662,0.227115 -0.429074,0.462699 -0.630976,0.626752 -0.201903,0.164053 -0.35335,0.256604 -0.429112,0.227309 -0.07576,-0.02929 -0.07576,-0.180742 0.0042,-0.323922 0.07995,-0.14318 0.239807,-0.277799 0.454387,-0.429263 0.214581,-0.151464 0.48382,-0.319739 0.81201,-0.466987 0.328191,-0.147248 0.715222,-0.273454 1.1021,-0.39961"
             id="path1746" />
          <path
             style="fill:none;stroke:#f7f0f0;stroke-width:0.264583px;stroke-linecap:butt;stroke-linejoin:miter;stroke-opacity:1"
             d="m 26.277777,11.396593 c -0.0084,0.07595 -0.01685,0.151682 1.32e-4,0.206371 0.01698,0.05469 0.05905,0.08834 0.201984,0.02931 0.142932,-0.05903 0.38693,-0.210482 0.492042,-0.23141 0.105111,-0.02093 0.07146,0.08845 0.0041,0.252499 -0.06731,0.164048 -0.168278,0.382805 -0.344941,0.609919 -0.176662,0.227115 -0.429074,0.462699 -0.630976,0.626752 -0.201903,0.164053 -0.35335,0.256604 -0.429112,0.227309 -0.07576,-0.02929 -0.07576,-0.180742 0.0042,-0.323922 0.07995,-0.14318 0.239807,-0.277799 0.454387,-0.429263 0.214581,-0.151464 0.48382,-0.319739 0.81201,-0.466987 0.328191,-0.147248 0.715222,-0.273454 1.1021,-0.39961"
             id="path1746-3" />
          <path
             style="fill:none;stroke:#f7f0f0;stroke-width:0.264583px;stroke-linecap:butt;stroke-linejoin:miter;stroke-opacity:1"
             d="m 16.456369,11.476623 c -0.05955,0.148874 -0.119044,0.297612 -0.112909,0.383864 0.0061,0.08625 0.07753,0.110049 0.255901,0.03858 0.17837,-0.07147 0.463941,-0.238057 0.582878,-0.291563 0.118937,-0.05351 0.07134,0.006 0.02076,0.116121 -0.05059,0.11013 -0.104129,0.270765 -0.08619,0.333128 0.01794,0.06236 0.107185,0.02667 0.267776,-0.08041 0.16059,-0.107081 0.392616,-0.285563 0.499665,-0.336022 0.107049,-0.05046 0.0892,0.02688 0.05945,0.125031 -0.02975,0.09815 -0.0714,0.217138 -0.06833,0.267604 0.0031,0.05047 0.05067,0.03261 0.181552,-0.02391 0.13088,-0.05652 0.345059,-0.151712 0.559119,-0.24685"
             id="path1863" />
          <path
             style="fill:none;stroke:#f7f0f0;stroke-width:0.264583px;stroke-linecap:butt;stroke-linejoin:miter;stroke-opacity:1"
             d="m 21.096995,10.405709 c -0.24988,0.232031 -0.499749,0.464053 -0.713941,0.672295 -0.214192,0.208242 -0.392674,0.392674 -0.508715,0.541467 -0.11604,0.148793 -0.169585,0.261832 -0.223077,0.37476"
             id="path1867" />
          <path
             style="fill:none;stroke:#f7f0f0;stroke-width:0.264583px;stroke-linecap:butt;stroke-linejoin:miter;stroke-opacity:1"
             d="m 20.127554,11.093696 c -0.202063,0.02971 -0.404346,0.05946 -0.547089,0.05064 -0.142742,-0.0088 -0.226036,-0.05642 -0.241073,-0.110043 -0.01504,-0.05363 0.03851,-0.113123 0.190257,-0.23214 0.151746,-0.119018 0.401621,-0.2975 0.722956,-0.449222 0.321335,-0.151722 0.713995,-0.276659 0.996634,-0.34804 0.28264,-0.071381 0.455172,-0.089231 0.541323,-0.056364 0.08615,0.032867 0.08615,0.116158 -0.01499,0.255839 -0.101141,0.139682 -0.303422,0.336012 -0.737692,0.600745 -0.434271,0.264732 -1.100604,0.597899 -1.481398,0.797216 -0.380795,0.199316 -0.475986,0.26476 -0.300422,0.22013 0.175565,-0.04463 0.62177,-0.199316 0.922304,-0.249804 0.300534,-0.05049 0.455218,0.0031 0.520485,0.09235 0.06527,0.08929 0.04147,0.21423 -0.05668,0.368821 -0.09815,0.15459 -0.270686,0.339022 -0.526468,0.523428 -0.255781,0.184407 -0.594897,0.368839 -0.835745,0.443272 -0.240847,0.07443 -0.383633,0.03874 -0.455184,-0.05339 -0.07155,-0.09213 -0.07155,-0.240861 -1.19e-4,-0.360007 0.07143,-0.119146 0.214218,-0.208387 0.321355,-0.264911 0.107136,-0.05653 0.178528,-0.08032 0.300543,-0.09517 0.122015,-0.01485 0.294546,-0.0208 0.428417,0.02396 0.133871,0.04476 0.22906,0.139948 0.323988,0.234876"
             id="path1871" />
          <path
             style="fill:none;stroke:#f7f0f0;stroke-width:0.264583px;stroke-linecap:butt;stroke-linejoin:miter;stroke-opacity:1"
             d="m 21.257632,11.637259 c -0.01789,0.101354 -0.03574,0.202494 0.01791,0.235086 0.05365,0.03259 0.178589,-0.0031 0.3243,-0.0745 0.145711,-0.07139 0.312294,-0.178482 0.380659,-0.208173 0.06837,-0.02969 0.03862,0.01791 -0.006,0.07738 -0.04461,0.05947 -0.104104,0.130865 -0.121889,0.202405 -0.01778,0.07154 0.006,0.142935 0.04771,0.172503 0.04169,0.02957 0.101189,0.01767 0.234997,-0.04778 0.133808,-0.06545 0.342036,-0.184438 0.550184,-0.30338"
             id="path2790" />
          <path
             style="fill:none;stroke:#f7f0f0;stroke-width:0.264583px;stroke-linecap:butt;stroke-linejoin:miter;stroke-opacity:1"
             d="m 23.167427,11.744351 c 0.01186,-0.06523 0.02376,-0.130679 -0.0088,-0.154604 -0.03261,-0.02392 -0.109949,-0.0061 -0.178458,0.02964 -0.06851,0.03571 -0.128005,0.08926 -0.14279,0.139991 -0.01479,0.05073 0.01496,0.09833 0.06852,0.116006 0.05356,0.01768 0.130899,0.0058 0.279541,-0.09536 0.148642,-0.101137 0.36877,-0.291518 0.749538,-0.639565 0.380769,-0.348047 0.922165,-0.853747 1.148234,-1.056017 0.226069,-0.2022697 0.136827,-0.1011287 -0.199309,0.223108 -0.336136,0.324236 -0.919189,0.871592 -1.216691,1.172144 -0.297502,0.300552 -0.309402,0.354098 -0.276536,0.377789 0.03287,0.02369 0.110207,0.01774 0.267803,-0.04475 0.157596,-0.06249 0.395572,-0.181477 0.633447,-0.300414"
             id="path2907" />
          <path
             style="fill:none;stroke:#f7f0f0;stroke-width:0.264583px;stroke-linecap:butt;stroke-linejoin:miter;stroke-opacity:1"
             d="m 24.758841,11.736589 c 0.01186,-0.06523 0.02376,-0.130679 -0.0088,-0.154604 -0.03261,-0.02393 -0.109949,-0.0061 -0.178458,0.02964 -0.06851,0.03571 -0.128005,0.08926 -0.14279,0.139991 -0.01479,0.05073 0.01496,0.09833 0.06852,0.116006 0.05356,0.01768 0.130899,0.0058 0.279541,-0.09536 0.148642,-0.101137 0.36877,-0.291518 0.749538,-0.639565 0.380769,-0.348047 0.922164,-0.853746 1.148233,-1.056016 0.226069,-0.2022696 0.136828,-0.1011297 -0.199314,0.223112 -0.336142,0.324242 -0.919183,0.871587 -1.216685,1.172139 -0.297502,0.300552 -0.309402,0.354098 -0.276536,0.377789 0.03287,0.02369 0.110207,0.01774 0.267803,-0.04475 0.157596,-0.06249 0.395572,-0.181477 0.633447,-0.300414"
             id="path2907-1" />
          <path
             style="fill:none;stroke:#f7f0f0;stroke-width:0.264583px;stroke-linecap:butt;stroke-linejoin:miter;stroke-opacity:1"
             d="m 13.564904,10.976863 c 0.273656,-0.327198 0.547334,-0.654422 0.681217,-0.865504 0.133883,-0.2110813 0.127934,-0.306271 0.06554,-0.336184 -0.0624,-0.029913 -0.181383,0.00578 -0.392659,0.1396605 -0.211276,0.1338765 -0.514696,0.3659035 -0.871704,0.7437355 -0.357009,0.377833 -0.767518,0.90138 -1.017408,1.23755 -0.24989,0.336171 -0.339131,0.484906 -0.33301,0.598021 0.0061,0.113116 0.107261,0.190458 0.243996,0.178421 0.136734,-0.01204 0.309266,-0.113175 0.529379,-0.267855 0.220113,-0.15468 0.487837,-0.362909 0.621684,-0.467012 0.133846,-0.104102 0.133846,-0.104102 -3.9e-5,0.08631 -0.133886,0.190415 -0.401609,0.571177 -0.580103,0.850832 -0.178495,0.279656 -0.267736,0.458138 -0.306342,0.571281 -0.03861,0.113143 -0.02671,0.160742 -0.01488,0.208026"
             id="path3570" />
        </g>
      </g>
    </g>
  </g>
</svg>
